<svg width="32" height="32" viewBox="0 0 32 32" fill="none" xmlns="http://www.w3.org/2000/svg">
<path d="M16.7512 5.22223C17.0553 4.7612 16.9281 4.14095 16.4671 3.83685C16.006 3.53276 15.3858 3.65999 15.0817 4.12101L12.3287 8.29484C11.7205 9.21689 11.9749 10.4574 12.897 11.0656L17.0708 13.8186C17.5318 14.1227 18.1521 13.9955 18.4562 13.5345C18.7603 13.0734 18.6331 12.4532 18.172 12.1491L15.0255 10.0736C18.4456 9.13666 22.088 10.9228 23.3953 14.3016C24.7904 17.9071 22.9985 21.9609 19.393 23.356C15.7875 24.7511 11.7337 22.9591 10.3387 19.3536C10.1394 18.8386 9.56025 18.5826 9.04517 18.7819C8.5301 18.9812 8.27411 19.5603 8.47341 20.0753C10.2671 24.711 15.4791 27.0149 20.1147 25.2212C24.7504 23.4276 27.0543 18.2156 25.2606 13.5799C23.6292 9.36354 19.1698 7.0762 14.8883 8.04661L16.7512 5.22223Z" fill="white"/>
</svg>
